Coordinates
version=1
nRows=54
nColumns=12
inDegrees=yes

Units are S.I. units (second, meters, Newtons, ...)
Angles are in degrees

endheader
time	SC_y	SC_z	SC_x	AC_y	AC_z	AC_x	GH_y	GH_z	GH_yy	EL_x	PS_y
       0.0              -13.33          36.76          25.91          55.09          1.476         -3.163         -152.0          24.75         -33.77           21.7          26.22
 0.0004155              -13.33          36.76          25.92          55.09          1.476         -3.165         -152.0          24.74         -33.79           21.7          26.23
 0.0008309              -13.33          36.75          25.93          55.09          1.476         -3.167         -152.0          24.74          -33.8           21.7          26.23
  0.001246              -13.33          36.75          25.93           55.1          1.476          -3.17         -152.0          24.74         -33.82           21.7          26.24
  0.001662              -13.33          36.74          25.94           55.1          1.475         -3.173         -152.0          24.74         -33.84           21.7          26.25
  0.002077              -13.33          36.74          25.94           55.1          1.475         -3.176         -152.0          24.73         -33.86           21.7          26.26
  0.002493              -13.34          36.73          25.95           55.1          1.475         -3.179         -152.0          24.73         -33.88           21.7          26.26
  0.002908              -13.34          36.72          25.96          55.11          1.474         -3.182         -152.0          24.73          -33.9           21.7          26.27
  0.003324              -13.34          36.72          25.97          55.11          1.474         -3.186         -152.0          24.72         -33.92          21.71          26.28
  0.003739              -13.34          36.71          25.98          55.11          1.474          -3.19         -152.0          24.72         -33.94          21.71          26.29
  0.004155              -13.34           36.7          25.99          55.11          1.473         -3.194         -152.0          24.71         -33.97          21.71           26.3
   0.00457              -13.35          36.69           26.0          55.12          1.473         -3.199         -152.0          24.71          -34.0          21.71          26.31
  0.004986              -13.35          36.68          26.01          55.12          1.472         -3.204         -152.0           24.7         -34.03          21.71          26.32
  0.005401              -13.35          36.67          26.02          55.13          1.472         -3.209         -152.0           24.7         -34.06          21.71          26.34
  0.005817              -13.36          36.65          26.03          55.13          1.471         -3.214         -152.0          24.69          -34.1          21.71          26.35
  0.006232              -13.36          36.64          26.05          55.13          1.471         -3.221         -152.0          24.68         -34.13          21.71          26.37
  0.006647              -13.36          36.63          26.06          55.14           1.47         -3.227         -152.0          24.68         -34.18          21.71          26.38
  0.007063              -13.37          36.61          26.08          55.14          1.469         -3.235         -152.0          24.67         -34.22          21.72           26.4
  0.007478              -13.37           36.6           26.1          55.15          1.469         -3.243         -152.0          24.66         -34.27          21.72          26.42
  0.007894              -13.38          36.58          26.12          55.16          1.468         -3.251         -152.0          24.65         -34.33          21.72          26.44
  0.008309              -13.38          36.56          26.14          55.16          1.467         -3.261         -152.0          24.64         -34.39          21.72          26.46
  0.008725              -13.39          36.53          26.16          55.17          1.466         -3.272         -152.0          24.63         -34.45          21.72          26.49
   0.00914              -13.39          36.51          26.19          55.18          1.465         -3.283         -152.0          24.62         -34.52          21.73          26.52
  0.009556               -13.4          36.48          26.22          55.19          1.464         -3.296         -152.0           24.6          -34.6          21.73          26.55
  0.009971              -13.41          36.45          26.25           55.2          1.462          -3.31         -152.0          24.59         -34.69          21.73          26.59
   0.01039              -13.42          36.42          26.29          55.21          1.461         -3.326         -152.0          24.57         -34.79          21.74          26.63
    0.0108              -13.43          36.38          26.33          55.22          1.459         -3.344         -152.0          24.55         -34.91          21.74          26.67
   0.01122              -13.44          36.34          26.37          55.24          1.457         -3.365         -152.0          24.53         -35.03          21.75          26.72
   0.01163              -13.45          36.29          26.43          55.26          1.455         -3.387         -152.0           24.5         -35.17          21.75          26.78
   0.01205              -13.47          36.23          26.48          55.27          1.452         -3.413         -152.0          24.48         -35.34          21.76          26.84
   0.01246              -13.49          36.17          26.55           55.3           1.45         -3.443         -152.1          24.45         -35.52          21.76          26.91
   0.01288              -13.51           36.1          26.63          55.32          1.446         -3.477         -152.1          24.41         -35.73          21.77           27.0
   0.01329              -13.53          36.01          26.72          55.35          1.443         -3.516         -152.1          24.37         -35.97          21.78          27.09
   0.01371              -13.55          35.92          26.82          55.38          1.438         -3.561         -152.1          24.32         -36.26          21.79           27.2
   0.01413              -13.58           35.8          26.94          55.42          1.433         -3.615         -152.1          24.26         -36.59           21.8          27.33
   0.01454              -13.62          35.67          27.08          55.47          1.427         -3.677         -152.1          24.19         -36.98          21.82          27.49
   0.01496              -13.66          35.51          27.25          55.52           1.42         -3.752         -152.2          24.11         -37.45          21.83          27.67
   0.01537              -13.71          35.32          27.46          55.59          1.411         -3.841         -152.2          24.02          -38.0          21.85          27.89
   0.01579              -13.78          35.09           27.7          55.67          1.401         -3.949         -152.2           23.9         -38.68          21.88          28.16
    0.0162              -13.85          34.81           28.0          55.76          1.389         -4.082         -152.3          23.76          -39.5          21.91          28.48
   0.01662              -13.94          34.47          28.37          55.88          1.373         -4.245         -152.3          23.58         -40.52          21.95          28.88
   0.01703              -14.06          34.03          28.84          56.03          1.354         -4.448         -152.4          23.36         -41.79          21.99          29.39
   0.01745              -14.21          33.49          29.42          56.22          1.329         -4.704         -152.5          23.09         -43.38          22.05          30.02
   0.01786              -14.39           32.8          30.16          56.46          1.298          -5.03         -152.6          22.73         -45.41          22.12          30.82
   0.01828              -14.63          31.91          31.11          56.76          1.258         -5.446         -152.7          22.28         -48.01          22.22          31.84
    0.0187              -14.94          30.78          32.32          57.16          1.207         -5.981         -152.9          21.71         -51.34          22.34          33.16
   0.01911              -15.33          29.32          33.88          57.66          1.142         -6.664         -153.1          20.97          -55.6           22.5          34.84
   0.01953              -15.82           27.5          35.83          58.29           1.06         -7.523         -153.3          20.04         -60.96          22.69          36.95
   0.01994              -16.42          25.28          38.21          59.05         0.9598          -8.57         -153.7          18.92         -67.48          22.93          39.53
   0.02036              -17.11           22.7          40.97          59.94         0.8439         -9.783         -154.1          17.61         -75.05          23.21          42.51
   0.02077              -17.86          19.91          43.95           60.9         0.7184          -11.1         -154.5          16.19         -83.24          23.51          45.75
   0.02119              -18.61          17.11          46.94          61.87         0.5929         -12.41         -154.9          14.77         -91.43           23.8          48.98
    0.0216              -19.31          14.54           49.7          62.75          0.477         -13.62         -155.3          13.47         -98.99          24.08          51.97
   0.02202              -19.91          12.31          52.08          63.52          0.377         -14.67         -155.6          12.34         -105.5          24.32          54.54
